<?xml version="1.0" encoding="iso-8859-1"?>
<!-- Uploaded to: SVG Repo, www.svgrepo.com, Generator: SVG Repo Mixer Tools -->
<svg fill="#000000" height="800px" width="800px" version="1.1" id="Capa_1" xmlns="http://www.w3.org/2000/svg" xmlns:xlink="http://www.w3.org/1999/xlink" 
	 viewBox="0 0 502.664 502.664" xml:space="preserve">
<g>
	<g>
		<g>
			<path d="M139.498,336.181H43.4c-17.084,0-31.148,15.725-31.148,35.052v96.378c0,19.306,14.064,35.053,31.148,35.053h96.098
				c17.084,0,31.083-15.747,31.083-35.053v-96.378C170.603,351.906,156.582,336.181,139.498,336.181z"/>
			<path d="M91.395,326.409c33.154,0,59.924-26.769,59.924-59.837S124.55,206.67,91.395,206.67
				c-33.068,0-59.794,26.791-59.794,59.837C31.58,299.64,58.327,326.409,91.395,326.409z"/>
			<path d="M459.264,336.181h-96.055c-17.062,0-31.083,15.725-31.083,35.052v96.378c0,19.306,14.021,35.053,31.083,35.053h96.055
				c17.149,0,31.148-15.747,31.148-35.053v-96.378C490.412,351.906,476.391,336.181,459.264,336.181z"/>
			<path d="M351.366,266.55c0,33.068,26.769,59.837,59.794,59.837c33.133,0,59.924-26.769,59.924-59.837
				s-26.791-59.859-59.924-59.859C378.136,206.67,351.366,233.461,351.366,266.55z"/>
			<path d="M262.84,186.523c74.764-3.775,133.631-43.961,133.631-93.056C396.471,41.847,331.478,0,251.321,0
				s-145.15,41.847-145.15,93.445c0,42.818,44.781,78.82,105.783,89.885l-28.517,52.482L262.84,186.523z"/>
		</g>
	</g>
	<g>
	</g>
	<g>
	</g>
	<g>
	</g>
	<g>
	</g>
	<g>
	</g>
	<g>
	</g>
	<g>
	</g>
	<g>
	</g>
	<g>
	</g>
	<g>
	</g>
	<g>
	</g>
	<g>
	</g>
	<g>
	</g>
	<g>
	</g>
	<g>
	</g>
</g>
</svg>