<?xml version="1.0" encoding="utf-8"?>
<!-- Uploaded to: SVG Repo, www.svgrepo.com, Generator: SVG Repo Mixer Tools -->
<svg width="800px" height="800px" viewBox="0 0 48 48" xmlns="http://www.w3.org/2000/svg" xmlns:xlink="http://www.w3.org/1999/xlink">
  <defs>
    <linearGradient id="linear-gradient" x1="0.5" x2="0.5" y2="1" gradientUnits="objectBoundingBox">
      <stop offset="0" stop-color="#8f5bff"/>
      <stop offset="1" stop-color="#1600c8"/>
    </linearGradient>
    <clipPath id="clip-User">
      <rect width="48" height="48"/>
    </clipPath>
  </defs>
  <g id="User" clip-path="url(#clip-User)">
    <rect width="48" height="48" fill="rgba(255,255,255,0)"/>
    <g id="User-2" data-name="User" transform="translate(6 6)">
      <g id="Icon" transform="translate(11)" stroke-miterlimit="10" fill="url(#linear-gradient)">
        <path d="M0,24.526A12.531,12.531,0,0,1,7.956,12.853,6.977,6.977,0,0,1,6,8V7A7,7,0,1,1,20,7V8a6.981,6.981,0,0,1-2.259,5.15A12.53,12.53,0,0,1,25,24.526C25,28.105,19.4,29,12.5,29S0,28.105,0,24.526Z" stroke="none"/>
        <path d="M 12.50010013580322 28.49980163574219 C 16.36959075927734 28.49980163574219 19.21434020996094 28.21389007568359 21.1969108581543 27.62574005126953 C 23.41967964172363 26.9663200378418 24.50020027160645 25.95236015319824 24.50020027160645 24.52589988708496 C 24.50020027160645 22.18515014648438 23.82880020141602 19.91636085510254 22.5585994720459 17.96479988098145 C 21.32052040100098 16.06259155273438 19.58176040649414 14.55468082427979 17.53030967712402 13.60406112670898 L 16.8514404296875 13.2894811630249 L 17.40180969238281 12.78261089324951 C 18.73510932922363 11.55470085144043 19.49979972839355 9.811540603637695 19.49979972839355 8.000101089477539 L 19.49979972839355 7.000200748443604 C 19.49979972839355 3.415980815887451 16.58382034301758 0.5000008344650269 12.99960041046143 0.5000008344650269 C 9.41586971282959 0.5000008344650269 6.50029993057251 3.415980815887451 6.50029993057251 7.000200748443604 L 6.50029993057251 8.000101089477539 C 6.50029993057251 9.689210891723633 7.145150184631348 11.28964042663574 8.316070556640625 12.50659084320068 L 8.835160255432129 13.04608058929443 L 8.137960433959961 13.31888103485107 C 5.912750244140625 14.1895809173584 4.012400150299072 15.69292068481445 2.642380237579346 17.66640090942383 C 1.240820169448853 19.6852912902832 0.5000001192092896 22.05727005004883 0.5000001192092896 24.52589988708496 C 0.5000001192092896 25.95236015319824 1.580520153045654 26.9663200378418 3.803290128707886 27.62574005126953 C 5.785860061645508 28.21389007568359 8.630610466003418 28.49980163574219 12.50010013580322 28.49980163574219 M 12.50010013580322 28.99980163574219 C 5.596199989318848 28.99980163574219 1.358032193365943e-07 28.10520172119141 1.358032193365943e-07 24.52589988708496 C 1.358032193365943e-07 19.21499061584473 3.299140214920044 14.67533111572266 7.955770015716553 12.85326099395752 C 6.744860172271729 11.59475040435791 6.00029993057251 9.884250640869141 6.00029993057251 8.000101089477539 L 6.00029993057251 7.000200748443604 C 6.00029993057251 3.133800745010376 9.134099960327148 8.178710686479462e-07 12.99960041046143 8.178710686479462e-07 C 16.86599922180176 8.178710686479462e-07 19.99979972839355 3.133800745010376 19.99979972839355 7.000200748443604 L 19.99979972839355 8.000101089477539 C 19.99979972839355 10.03713035583496 19.12966918945313 11.87106037139893 17.74053001403809 13.15040111541748 C 22.02663040161133 15.13652038574219 25.00020027160645 19.48351097106934 25.00020027160645 24.52589988708496 C 25.00020027160645 28.10520172119141 19.40399932861328 28.99980163574219 12.50010013580322 28.99980163574219 Z" stroke="none" fill="rgba(255,255,255,0.3)"/>
      </g>
      <g id="Icon-2" data-name="Icon" transform="translate(0 4)" fill="rgba(136,125,255,0.7)" stroke-miterlimit="10">
        <path d="M0,27A14,14,0,0,1,8.735,14.023a8,8,0,1,1,10.53,0A14,14,0,0,1,28,27c0,4-6.268,5-14,5S0,31,0,27Z" stroke="none"/>
        <path d="M 14.00040054321289 31.50040054321289 C 18.33950042724609 31.50040054321289 21.53112030029297 31.17991065979004 23.75765037536621 30.5206298828125 C 26.27580070495605 29.77499008178711 27.49990081787109 28.62338066101074 27.49990081787109 27 C 27.49990081787109 24.26072120666504 26.68426132202148 21.62355041503906 25.14117050170898 19.37359046936035 C 23.63372039794922 17.17559051513672 21.53674125671387 15.4857006072998 19.07693099975586 14.4866304397583 L 18.32529067993164 14.18134021759033 L 18.93581962585449 13.6471004486084 C 20.56513977050781 12.22137069702148 21.49959945678711 10.16311073303223 21.49959945678711 8.000100135803223 C 21.49959945678711 3.864530324935913 18.13547134399414 0.5000002980232239 14.00040054321289 0.5000002980232239 C 9.864830017089844 0.5000002980232239 6.500300407409668 3.864530324935913 6.500300407409668 8.000100135803223 C 6.500300407409668 10.16343021392822 7.434820175170898 12.22169017791748 9.064240455627441 13.64713001251221 L 9.67495059967041 14.18138027191162 L 8.92317008972168 14.4867000579834 C 6.463210582733154 15.48576068878174 4.366140365600586 17.17563056945801 2.858680486679077 19.37363052368164 C 1.315620422363281 21.6235294342041 0.5000004172325134 24.26068115234375 0.5000004172325134 27 C 0.5000004172325134 28.62339019775391 1.724130392074585 29.77499961853027 4.242350578308105 30.52062034606934 C 6.468980312347412 31.17991065979004 9.660870552062988 31.50040054321289 14.00040054321289 31.50040054321289 M 14.00040054321289 32.00040054321289 C 6.267600536346436 32.00040054321289 4.089355343239731e-07 30.99959945678711 4.089355343239731e-07 27 C 4.089355343239731e-07 21.13029098510742 3.611900329589844 16.10410118103027 8.735030174255371 14.02344989776611 C 7.058700561523438 12.55698013305664 6.000300407409668 10.40223026275635 6.000300407409668 8.000100135803223 C 6.000300407409668 3.582000255584717 9.581400871276855 2.716064386731887e-07 14.00040054321289 2.716064386731887e-07 C 18.41850090026855 2.716064386731887e-07 21.99959945678711 3.582000255584717 21.99959945678711 8.000100135803223 C 21.99959945678711 10.4019603729248 20.94094085693359 12.55692005157471 19.26507949829102 14.02338027954102 C 24.38780975341797 16.10403060913086 27.99990081787109 21.13029098510742 27.99990081787109 27 C 27.99990081787109 30.99959945678711 21.7322998046875 32.00040054321289 14.00040054321289 32.00040054321289 Z" stroke="none" fill="rgba(255,255,255,0.3)"/>
      </g>
    </g>
  </g>
</svg>